<!DOCTYPE svg PUBLIC "-//W3C//DTD SVG 1.1//EN" "http://www.w3.org/Graphics/SVG/1.1/DTD/svg11.dtd">
<!-- Uploaded to: SVG Repo, www.svgrepo.com, Transformed by: SVG Repo Mixer Tools -->
<svg height="800px" width="800px" version="1.1" id="_x32_" xmlns="http://www.w3.org/2000/svg" xmlns:xlink="http://www.w3.org/1999/xlink" viewBox="0 0 512 512" xml:space="preserve" fill="#000000">
<g id="SVGRepo_bgCarrier" stroke-width="0"/>
<g id="SVGRepo_tracerCarrier" stroke-linecap="round" stroke-linejoin="round"/>
<g id="SVGRepo_iconCarrier"> <style type="text/css"> .st0{fill:#ff0059;} </style> <g> <path class="st0" d="M256.002,96.898c26.756,0,48.448-21.703,48.448-48.431C304.45,21.675,282.757,0,256.002,0 c-26.774,0-48.45,21.675-48.45,48.467C207.552,75.195,229.227,96.898,256.002,96.898z"/> <path class="st0" d="M371.412,378.74l-50.204-118.046l16.704-84.265c1.737-31.99-22.329-55.974-45.804-55.974h-72.224 c-23.466,0-47.531,23.984-45.804,55.974l16.713,84.265L140.581,378.74c-2.245,5.29-1.69,11.37,1.482,16.168 c3.172,4.798,8.543,7.689,14.305,7.689h52.921l13.687,92.918c0,9.097,7.388,16.486,16.494,16.486c3.299,0,29.755,0,33.054,0 c9.115,0,16.494-7.389,16.494-16.486l13.687-92.918h52.921c5.762,0,11.133-2.891,14.305-7.689 C373.112,390.109,373.666,384.029,371.412,378.74z"/> </g> </g>
</svg>