<?xml version="1.0" standalone="no"?>
<!DOCTYPE svg PUBLIC "-//W3C//DTD SVG 20010904//EN"
 "http://www.w3.org/TR/2001/REC-SVG-20010904/DTD/svg10.dtd">
<svg version="1.0" xmlns="http://www.w3.org/2000/svg"
 width="512.000000pt" height="512.000000pt" viewBox="0 0 512.000000 512.000000"
 preserveAspectRatio="xMidYMid meet">

<g transform="translate(0.000000,512.000000) scale(0.100000,-0.100000)"
fill="#000000" stroke="none">
<path d="M2165 5109 c-555 -56 -1064 -298 -1461 -694 -473 -472 -725 -1109
-701 -1775 19 -510 177 -958 481 -1365 285 -380 700 -679 1154 -831 261 -87
457 -118 752 -119 187 0 393 15 407 29 2 1 -22 51 -53 110 -98 188 -150 380
-161 596 -8 166 18 358 71 507 14 41 14 41 -22 90 -94 125 -136 255 -136 423
0 133 16 207 70 316 85 172 264 321 437 364 l47 12 0 379 0 379 -101 0 c-86 0
-107 3 -141 22 -72 41 -96 123 -58 198 31 62 77 80 200 80 l100 0 0 100 c0 81
4 108 20 140 23 45 80 80 130 80 50 0 107 -35 130 -80 16 -32 20 -59 20 -140
l0 -100 100 0 c81 0 108 -4 140 -20 45 -23 80 -80 80 -130 0 -50 -35 -107 -80
-130 -32 -16 -59 -20 -140 -20 l-100 0 0 -379 0 -379 33 -7 c101 -22 231 -98
320 -188 l57 -58 88 12 c122 16 321 5 452 -25 144 -33 232 -65 357 -131 59
-30 108 -54 109 -52 1 1 9 43 16 92 8 56 13 178 12 320 0 188 -4 253 -22 360
-59 344 -179 655 -360 930 -109 167 -186 261 -326 400 -363 361 -830 595
-1336 670 -135 20 -456 28 -585 14z m-349 -994 c219 -73 384 -238 460 -460 24
-70 28 -96 28 -205 1 -139 -13 -209 -64 -316 -85 -177 -265 -330 -443 -375
l-47 -11 0 -471 0 -471 38 36 c73 70 132 84 202 48 45 -23 80 -80 80 -130 0
-55 -36 -102 -207 -272 -172 -170 -209 -198 -263 -198 -54 0 -91 28 -263 198
-171 170 -207 217 -207 272 0 50 35 107 80 130 70 36 129 22 203 -48 l37 -36
0 471 0 471 -47 12 c-173 43 -352 192 -437 364 -56 113 -71 183 -70 326 0 109
4 135 28 205 86 251 299 440 549 485 93 16 254 5 343 -25z"/>
<path d="M1492 3835 c-74 -21 -131 -56 -189 -118 -60 -63 -91 -126 -106 -212
-13 -78 0 -171 34 -242 28 -59 107 -144 165 -178 101 -59 239 -69 357 -25 75
28 172 118 211 193 58 116 58 258 0 374 -38 75 -136 165 -211 193 -75 28 -190
35 -261 15z"/>
<path d="M3090 2474 c-75 -20 -129 -54 -187 -118 -56 -61 -88 -122 -104 -198
-13 -61 -7 -159 13 -207 l13 -33 53 70 c108 145 309 312 475 393 37 18 67 36
67 39 0 12 -60 40 -116 55 -72 19 -142 18 -214 -1z"/>
<path d="M3820 2225 c-351 -56 -660 -285 -824 -612 -235 -470 -101 -1051 318
-1375 427 -330 1012 -313 1425 41 192 166 333 430 371 696 53 376 -108 776
-411 1018 -245 196 -567 281 -879 232z m3 -731 c18 -9 65 -48 105 -87 l72 -71
73 71 c39 39 86 78 104 87 122 61 258 -75 197 -197 -9 -18 -48 -65 -87 -104
l-71 -73 71 -72 c39 -40 78 -87 87 -105 61 -122 -75 -258 -197 -197 -18 9 -65
48 -104 87 l-73 71 -72 -71 c-40 -39 -87 -78 -105 -87 -122 -61 -258 75 -197
197 9 18 48 65 87 105 l71 72 -71 73 c-39 39 -78 86 -87 104 -61 122 75 258
197 197z"/>
</g>
</svg>
